<svg xmlns="http://www.w3.org/2000/svg" xmlns:xlink="http://www.w3.org/1999/xlink" width="500" zoomAndPan="magnify" viewBox="0 0 375 374.999991" height="500" preserveAspectRatio="xMidYMid meet" version="1.0"><defs><clipPath id="179eb7bb8b"><path d="M 37.5 46.601562 L 308.25 46.601562 L 308.25 315.851562 L 37.5 315.851562 Z M 37.5 46.601562 " clip-rule="nonzero"/></clipPath></defs><g clip-path="url(#179eb7bb8b)"><path stroke-linecap="butt" transform="matrix(0.647826, 0, 0, 0.648952, 4.083974, 15.385923)" fill="none" stroke-linejoin="miter" d="M 199.558754 66.051269 L 260.182209 169.541507 L 447.46129 173.857362 L 305.731202 288.158307 L 339.401519 444.570442 L 203.152505 347.839904 L 110.311911 382.348689 L 125.271807 276.721591 L 65.667386 205.097654 L 151.471221 181.658406 Z M 199.558754 66.051269 " stroke="#5f6b8e" stroke-width="16" stroke-opacity="1" stroke-miterlimit="10"/><path stroke-linecap="butt" transform="matrix(0.647826, 0, 0, 0.648952, 4.083974, 15.385923)" fill="none" stroke-linejoin="miter" d="M 200.240119 131.168316 L 238.969426 201.768968 L 343.821351 209.582051 L 266.230083 276.962364 L 285.320381 371.610215 L 202.597765 317.129313 L 138.458946 344.180155 L 149.131665 271.057407 L 104.559497 220.422853 L 167.588836 206.409867 Z M 200.240119 131.168316 " stroke="#5f6b8e" stroke-width="16" stroke-opacity="1" stroke-miterlimit="10"/></g></svg>